<?xml version="1.0" encoding="utf-8"?>
<!-- Generator: Adobe Illustrator 22.0.0, SVG Export Plug-In . SVG Version: 6.00 Build 0)  -->
<svg version="1.1" id="Layer_1" xmlns="http://www.w3.org/2000/svg" xmlns:xlink="http://www.w3.org/1999/xlink" x="0px" y="0px"
	 viewBox="0 0 1200 800" style="enable-background:new 0 0 1200 800;" xml:space="preserve">
<style type="text/css">
	.st0{fill:#8E8E8E;}
	.st1{fill:#FFFFFF;}
</style>
<rect width="1200" height="800"/>
<g>
	<g>
		<path class="st0" d="M862.7,383.4c3-5.7,7.1-10.2,12.7-13.3c5.5-3.2,11.9-4.8,19.2-4.8c8.6,0,15.8,2.4,21.5,7
			c5.7,4.8,9.1,11,10.5,19h-12.1c-1.2-4.8-3.6-8.6-7.1-11.2c-3.6-2.7-7.8-4-12.9-4c-4.8,0-8.8,1.2-12.4,3.4s-6.3,5.5-8.2,9.6
			c-1.9,4-2.9,8.8-2.9,14.1s1,10.1,2.9,14.1s4.6,7.2,8.1,9.6c3.6,2.3,7.6,3.4,12.4,3.4c5.9,0,10.9-1.7,15-4.9
			c4-3.3,6.2-7.8,6.4-13.7v-1.8h-20.7v-10h32.4v40.9h-9.3l-1.3-10.7c-2.1,3.1-5.2,5.8-9.1,8c-3.9,2.3-8.7,3.3-14,3.3
			c-6.9,0-13.1-1.5-18.4-4.8c-5.3-3.2-9.5-7.6-12.5-13.4s-4.5-12.4-4.5-19.8C858.3,395.7,859.7,389.1,862.7,383.4z"/>
		<path class="st0" d="M969.5,385.9v10.8h-5.1c-4.8,0-8.2,1.5-10.3,4.6s-3.2,7-3.2,11.8v27.4h-11.5v-54.6h10.2l1.3,8.2
			c1.5-2.6,3.6-4.5,6.1-6.1c2.5-1.4,5.8-2.1,10-2.1L969.5,385.9L969.5,385.9z"/>
		<path class="st0" d="M985.1,437.9c-4.3-2.3-7.5-5.6-9.9-9.9c-2.3-4.3-3.4-9.1-3.4-14.7c0-5.5,1.2-10.3,3.4-14.6
			c2.3-4.3,5.6-7.5,9.9-9.9c4.3-2.4,9.1-3.6,14.6-3.6s10.3,1.2,14.6,3.6c4.3,2.4,7.5,5.6,9.9,9.9c2.3,4.3,3.4,9.1,3.4,14.6
			c0,5.6-1.2,10.5-3.4,14.7c-2.3,4.3-5.6,7.5-9.9,9.9c-4.3,2.3-9.1,3.4-14.6,3.4C994.2,441.4,989.4,440.2,985.1,437.9z
			 M1011.3,426.4c3-3.3,4.4-7.7,4.4-13.1c0-5.4-1.4-9.7-4.4-13.1c-3-3.3-6.9-5.1-11.6-5.1c-4.9,0-8.7,1.7-11.6,5.1
			c-3,3.3-4.4,7.7-4.4,13.1c0,5.4,1.4,9.7,4.4,13.1c3,3.3,6.8,5.1,11.6,5.1C1004.4,431.4,1008.4,429.7,1011.3,426.4z"/>
		<path class="st0" d="M1084.2,385.9v54.6h-10.1l-1.3-6.9c-4.2,5.1-9.7,7.6-16.9,7.6c-6.4,0-11.6-2-15.6-5.9c-4-4-5.9-10.3-5.9-19.2
			V386h11.5v29c0,5.3,1.1,9.4,3.2,12.1c2.1,2.7,5.3,4.2,9.5,4.2c4.4,0,7.8-1.7,10.3-4.9s3.7-7.7,3.7-13.3V386h11.5L1084.2,385.9
			L1084.2,385.9z"/>
		<path class="st0" d="M1137.6,388.7c3.9,2.3,7,5.5,9.1,9.7c2.3,4.3,3.3,9.1,3.3,14.9c0,5.6-1.1,10.5-3.3,14.7
			c-2.3,4.3-5.2,7.5-9.1,9.9c-3.9,2.3-8.3,3.4-13.3,3.4c-4,0-7.6-0.7-10.6-2.3c-3-1.5-5.3-3.6-7.1-6.1v29h-11.5v-76h10l1.4,8.1
			c4.4-5.8,10.3-8.8,17.8-8.8C1129.2,385.4,1133.7,386.4,1137.6,388.7z M1133.9,426.4c3-3.4,4.4-7.8,4.4-13.2
			c0-5.5-1.4-9.7-4.4-13.2c-3-3.3-6.8-5-11.6-5c-4.8,0-8.7,1.7-11.5,5c-3,3.3-4.4,7.6-4.4,12.9c0,5.5,1.4,10,4.4,13.3
			c3,3.4,6.8,5.1,11.5,5.1C1127.1,431.6,1131,429.9,1133.9,426.4z"/>
	</g>
	<g>
		<g>
			<path class="st1" d="M54.4,383.4c3-5.7,7.1-10.2,12.6-13.3c5.5-3.2,11.8-4.8,19-4.8c5.6,0,10.7,1.1,15.2,3.2
				c4.5,2.1,8.2,5.2,11,9.1c2.9,3.9,4.6,8.6,5.5,13.7h-12.2c-1.2-4.8-3.6-8.6-7-11.2c-3.4-2.7-7.8-4-12.9-4c-4.6,0-8.7,1.2-12.1,3.4
				c-3.4,2.3-6.2,5.5-8,9.6c-1.9,4-2.7,8.8-2.7,14.1c0,5.2,1,10,2.7,14.1c1.9,4.2,4.5,7.4,8,9.6c3.4,2.3,7.6,3.4,12.1,3.4
				c5.1,0,9.4-1.3,12.8-4s5.8-6.4,7-11.2h12.4c-0.8,5.2-2.6,9.9-5.3,13.8c-2.9,3.9-6.4,6.9-10.9,9s-9.6,3.2-15.3,3.2
				c-7.2,0-13.7-1.5-19-4.8c-5.6-2.9-9.8-7.3-12.8-13s-4.4-12.4-4.4-20.1C50,395.7,51.4,389.1,54.4,383.4z"/>
			<path class="st1" d="M136.7,437.9c-4.3-2.3-7.5-5.6-9.9-9.9c-2.3-4.3-3.4-9.1-3.4-14.7c0-5.5,1.2-10.3,3.4-14.6
				c2.3-4.3,5.6-7.5,9.9-9.9s9.1-3.6,14.6-3.6s10.3,1.2,14.6,3.6c4.3,2.4,7.5,5.6,9.9,9.9c2.3,4.3,3.4,9.1,3.4,14.6
				c0,5.6-1.2,10.5-3.4,14.7c-2.3,4.3-5.6,7.5-9.9,9.9c-4.3,2.3-9.1,3.4-14.6,3.4C145.9,441.4,141,440.2,136.7,437.9z M163,426.4
				c3-3.3,4.4-7.7,4.4-13.1c0-5.4-1.4-9.7-4.4-13.1c-3-3.3-6.9-5.1-11.6-5.1c-4.9,0-8.7,1.7-11.6,5.1c-3,3.3-4.4,7.7-4.4,13.1
				c0,5.4,1.4,9.7,4.4,13.1c3,3.3,6.8,5.1,11.6,5.1C156.2,431.4,160,429.7,163,426.4z"/>
			<path class="st1" d="M264.5,391.2c3.8,3.9,5.7,10.1,5.7,18.7v30.9h-11.5v-30.9c0-4.8-1-8.4-2.9-10.9c-1.9-2.5-4.8-3.7-8.6-3.7
				c-4,0-7.1,1.4-9.5,4.3c-2.3,2.9-3.4,6.7-3.4,11.6v29.7h-11.6v-30.8c0-4.9-1-8.4-3-10.9c-1.9-2.5-4.9-3.7-8.6-3.7
				c-3.9,0-7,1.4-9.4,4.4c-2.3,3-3.4,6.9-3.4,11.8v29.2h-11.5v-54.7h10l1.3,7.1c3.9-5.1,9.3-7.7,16-7.8c3.8,0,7.2,0.8,10.1,2.5
				c3,1.7,5.1,4.2,6.8,7.5c1.9-3.1,4.4-5.6,7.6-7.4c3.1-1.8,6.9-2.6,11.3-2.6C255.9,385.4,260.9,387.2,264.5,391.2z"/>
			<path class="st1" d="M322.8,388.7c3.9,2.3,7,5.5,9.1,9.7c2.3,4.3,3.3,9.1,3.3,14.9c0,5.6-1.1,10.5-3.3,14.7
				c-2.3,4.3-5.2,7.5-9.1,9.9c-3.9,2.3-8.3,3.4-13.3,3.4c-4,0-7.6-0.7-10.6-2.3c-3-1.5-5.3-3.6-7.1-6.1v29h-11.5v-76h10l1.4,8.1
				c4.4-5.8,10.3-8.8,17.8-8.8C314.4,385.4,318.8,386.4,322.8,388.7z M319.1,426.4c3-3.4,4.4-7.8,4.4-13.2c0-5.5-1.4-9.7-4.4-13.2
				c-3-3.3-6.8-5-11.6-5s-8.7,1.7-11.5,5c-3,3.3-4.4,7.6-4.4,12.9c0,5.5,1.4,10,4.4,13.3c3,3.4,6.8,5.1,11.5,5.1
				C312.3,431.6,316.1,429.9,319.1,426.4z"/>
			<path class="st1" d="M344,365.9h11.5v74.7H344V365.9z"/>
			<path class="st1" d="M377.2,366.2c1.3,1.3,2,3,2,5s-0.7,3.7-2,5s-3,2-5,2s-3.7-0.7-5-2s-2-3-2-5s0.7-3.7,2-5s3-2,5-2
				C374.1,364.1,375.7,364.7,377.2,366.2z M366.4,385.9h11.5v54.6h-11.5V385.9z"/>
			<path class="st1" d="M441,430.7v10h-6.1c-3.6,0-6.2-0.7-7.7-2.3c-1.5-1.5-2.4-3.7-2.4-6.5c-4.2,6.3-10.1,9.4-18.1,9.4
				c-6.2,0-11-1.4-14.7-4.3s-5.6-6.8-5.6-11.8c0-5.6,2-10,5.9-12.9c4-3,9.7-4.5,17.5-4.5h13.8v-3.3c0-3.1-1.1-5.5-3.2-7.2
				c-2.1-1.8-5.1-2.6-8.9-2.6c-3.3,0-6.1,0.7-8.3,2.1c-2.1,1.4-3.4,3.4-3.9,5.8H388c0.6-5.5,3-9.7,7.2-12.7c4.3-3,9.9-4.5,16.8-4.5
				c7.4,0,12.9,1.7,17,5.1c4,3.4,5.9,8.3,5.9,14.7v21.6c0,2.6,1.2,3.8,3.7,3.8h2.4V430.7L441,430.7z M423.7,416.2h-14.3
				c-3.6,0-6.3,0.7-8.2,2.1c-1.9,1.4-2.9,3.4-2.9,6.2c0,2.4,1,4.3,2.7,5.7c1.8,1.4,4.3,2.1,7.4,2.1c4.8,0,8.4-1.3,11.2-3.8
				c2.6-2.6,4-5.9,4.2-10.2v-2.1C423.8,416.2,423.7,416.2,423.7,416.2z"/>
			<path class="st1" d="M491.5,391.2c4,4,6.2,10.3,6.2,19.2v30.1h-11.6v-29.4c0-5.2-1.1-9.1-3.3-11.9c-2.3-2.7-5.5-4-9.7-4
				c-4.5,0-8.1,1.5-10.7,4.8s-3.9,7.5-3.9,13.1v27.6H447v-54.8h10l1.3,7.1c4.2-5.2,10-7.8,17.5-7.8
				C482.1,385.4,487.3,387.4,491.5,391.2z"/>
			<path class="st1" d="M548.6,435.9c-4.4,3.6-10.1,5.3-17,5.3c-5.5,0-10.2-1.2-14.3-3.4c-4.2-2.3-7.4-5.6-9.5-9.9
				s-3.3-9.1-3.3-14.7s1.2-10.5,3.4-14.6c2.3-4.2,5.5-7.5,9.6-9.7c4.2-2.3,9-3.4,14.5-3.4c6.9,0,12.5,1.8,16.8,5.3
				c4.4,3.6,7,8.4,8.1,14.7H545c-0.8-3.1-2.4-5.6-4.8-7.5c-2.4-1.9-5.2-2.7-8.7-2.7c-4.6,0-8.3,1.7-11.2,5s-4.3,7.7-4.3,13.1
				c0,5.5,1.4,9.9,4.3,13.2c2.9,3.3,6.5,5.1,11.2,5.1c3.6,0,6.5-1,8.9-2.9s3.9-4.4,4.6-7.6h11.8C555.7,427.2,553,432.2,548.6,435.9z
				"/>
			<path class="st1" d="M565.9,398.7c2.3-4.3,5.3-7.5,9.4-9.9c4-2.3,8.7-3.4,13.8-3.4c5.2,0,9.9,1.1,13.9,3.2c4,2.1,7.2,5.1,9.5,9
				s3.6,8.6,3.6,13.8c0,1.4-0.1,2.9-0.4,4.4h-41.2v0.6c0.2,4.8,1.8,8.6,4.5,11.3s6.3,4.2,10.8,4.2c3.6,0,6.5-0.8,9-2.5
				c2.4-1.7,4-4,4.8-7.1h11.5c-1,5.6-3.7,10.1-8.1,13.7c-4.4,3.6-9.9,5.3-16.4,5.3c-5.7,0-10.7-1.2-14.9-3.4
				c-4.3-2.3-7.5-5.6-9.9-9.7c-2.3-4.2-3.4-9-3.4-14.6C562.6,407.9,563.7,402.9,565.9,398.7z M604.4,407.4c-0.5-4-2.1-7.1-4.8-9.4
				c-2.6-2.3-6.1-3.3-10.1-3.3c-3.8,0-7,1.2-9.7,3.4c-2.7,2.3-4.3,5.3-4.8,9.3H604.4z"/>
		</g>
		<g>
			<path class="st1" d="M760.4,391.1c4.2,4,6.2,10.6,6.2,19.7v29.8h-15.1v-29c0-9.5-3.7-14.3-11-14.3c-3.9,0-6.9,1.3-9,3.9
				c-2.1,2.6-3.2,6.3-3.2,11v28h-15.2v-54.4h13.2l1.4,6.9c1.9-2.4,4.3-4.2,6.9-5.5c2.7-1.3,6.1-2,10-2
				C751,385.2,756.3,387.2,760.4,391.1z"/>
			<path class="st1" d="M775.9,398.4c2.3-4.3,5.6-7.5,9.7-9.9c4.2-2.3,9-3.4,14.5-3.4c5.6,0,10.5,1.1,14.7,3.2
				c4.3,2.1,7.6,5.2,10,9.1c2.4,3.9,3.6,8.6,3.7,13.9c0,1.9-0.1,3.7-0.5,5.1h-39.8v0.5c0.4,4,1.7,7.1,3.8,9.4c2.3,2.3,5.2,3.4,9,3.4
				c3.1,0,5.6-0.7,7.6-2s3.3-3.2,4-5.8h14.9c-0.6,3.7-1.9,6.9-4.2,9.9s-5.1,5.2-8.8,6.9s-7.8,2.5-12.5,2.5c-6.2,0-11.4-1.2-15.8-3.4
				c-4.4-2.3-7.8-5.6-10.2-9.7c-2.4-4.3-3.6-9.1-3.6-14.7C772.4,407.6,773.5,402.7,775.9,398.4z M813.3,406.7
				c-0.5-3.3-1.9-5.9-4.2-7.7s-5.1-2.7-8.4-2.7s-6.1,1-8.3,2.9c-2.3,1.9-3.6,4.4-4,7.6L813.3,406.7L813.3,406.7z"/>
			<g>
				<g>
					<path class="st1" d="M667.9,441.4c-21.4,0-38.8-17.5-38.8-38.8s17.5-38.8,38.8-38.8s38.8,17.5,38.8,38.8
						C706.6,423.9,689.3,441.4,667.9,441.4z M667.9,380.1c-12.4,0-22.5,10.1-22.5,22.5s10.1,22.4,22.5,22.4s22.5-10.1,22.5-22.5
						S680.2,380.1,667.9,380.1z"/>
				</g>
				<g>
					<path class="st1" d="M616.2,376.7v-16.2c12.4,0,22.5-10.1,22.5-22.5H655C654.9,359.4,637.6,376.7,616.2,376.7z"/>
				</g>
			</g>
		</g>
	</g>
</g>
</svg>
