<?xml version="1.0" encoding="utf-8"?>
<!-- Generator: Adobe Illustrator 22.0.0, SVG Export Plug-In . SVG Version: 6.00 Build 0)  -->
<svg version="1.1" id="Layer_1" xmlns="http://www.w3.org/2000/svg" xmlns:xlink="http://www.w3.org/1999/xlink" x="0px" y="0px"
	 viewBox="0 0 1200 800" style="enable-background:new 0 0 1200 800;" xml:space="preserve">
<style type="text/css">
	.st0{fill:#086ECC;}
	.st1{fill:#FFFFFF;}
</style>
<rect class="st0" width="1200" height="800"/>
<g>
	<g>
		<path class="st1" d="M522.9,280.2c-13-22.6-37.2-36.5-63.3-36.5h-158c-0.9,0-1.6,0.7-1.6,1.6v205.1c0,0.8,0.7,1.6,1.6,1.6h158
			c26.1,0,50.3-14,63.3-36.5l17.9-31c13.1-22.7,13.1-50.5,0-73.1L522.9,280.2z M508.4,354.6l-28.7,49.7c-1.6,2.9-4.7,4.7-8.1,4.7
			H344.4c-0.8,0-1.6-0.7-1.6-1.6V288.2c0-0.8,0.7-1.6,1.6-1.6h127.2c3.3,0,6.4,1.8,8.1,4.6l28.7,49.7
			C510.8,345.2,510.8,350.4,508.4,354.6z"/>
		<g>
			<path class="st1" d="M573.9,451.9h39.8c0.8,0,1.6-0.7,1.6-1.6V318.5c0-0.8-0.7-1.6-1.6-1.6h-39.8c-0.8,0-1.6,0.7-1.6,1.6v131.8
				C572.3,451.2,573,451.9,573.9,451.9z"/>
			<path class="st1" d="M573.9,286.6h39.8c0.8,0,1.6-0.7,1.6-1.6v-39.8c0-0.8-0.7-1.6-1.6-1.6h-39.8c-0.8,0-1.6,0.7-1.6,1.6V285
				C572.3,285.9,573,286.6,573.9,286.6z"/>
		</g>
		<g>
			<path class="st1" d="M708.1,404.3l-28.7-49.7c-2.4-4.2-2.4-9.5,0-13.7l28.7-49.7c1.6-2.9,4.7-4.6,8.1-4.6h139.4
				c0.8,0,1.6-0.7,1.6-1.6v-39.8c0-0.8-0.7-1.6-1.6-1.6H728.2c-26.1,0-50.3,14-63.3,36.5l-17.8,31c-13.1,22.6-13.1,50.5,0,73.1
				l17.9,31c13,22.7,37.2,36.5,63.3,36.5h57.8c1.1,0,2.1-0.6,2.7-1.6l22.9-39.6c0.5-0.8-0.1-1.7-1-1.7h-94.5
				C712.8,409,709.7,407.2,708.1,404.3z"/>
			<path class="st1" d="M898.4,333.2H770.3c-0.8,0-1.6,0.7-1.6,1.6v39.8c0,0.8,0.7,1.6,1.6,1.6h60.4c0.5,0,1-0.3,1.3-0.8l22.1-38.3
				c0.3-0.5,0.8-0.8,1.3-0.8l0,0c0.9,0,1.6,0.7,1.6,1.6v112.5c0,0.8,0.7,1.6,1.6,1.6h39.8c0.8,0,1.6-0.7,1.6-1.6V334.8
				C900,333.9,899.3,333.2,898.4,333.2z"/>
		</g>
	</g>
	<g>
		<path class="st1" d="M319.9,489.8H300v54.1h19.4c8,0,14.1-2.4,18.3-7.3c4.2-4.8,6.3-11.4,6.3-19.7s-2-14.9-6.1-19.8
			C333.8,492.3,327.8,489.8,319.9,489.8z M308.1,497h11.5c10.8,0,16.1,6.5,16.1,20c0,13.2-5.4,19.6-16.6,19.6h-11V497z"/>
		<rect x="349.5" y="489.8" class="st1" width="7.4" height="8.8"/>
		<rect x="349.5" y="504.4" class="st1" width="7.4" height="39.5"/>
		<rect x="363.8" y="489.8" class="st1" width="7.4" height="54.1"/>
		<rect x="378" y="504.4" class="st1" width="7.4" height="39.5"/>
		<rect x="378" y="489.8" class="st1" width="7.4" height="8.8"/>
		<path class="st1" d="M418,508c-2.8-3.1-6.5-4.6-11-4.6c-4.8,0-8.9,1.8-12.1,5.3s-4.9,8.3-4.9,14.2c0,5.6,1.6,10.4,4.8,14
			c3.2,3.7,7.4,5.5,12.5,5.5c2.7,0,5-0.5,6.8-1.6c1.4-0.8,2.7-1.9,3.9-3.2v3.5c0,6.1-3.3,9.1-10.2,9.1c-6.1,0-9.2-1.7-9.8-5.2
			l-0.1-0.6h-7l0.1,0.8c0.4,3.5,2,6.4,5,8.3c2.9,1.9,6.9,2.8,11.9,2.8c5.3,0,9.6-1.3,12.8-3.9s4.7-6.5,4.7-11.6V504H418L418,508
			L418,508z M418.4,522.6c0,9-3.5,13.4-10.8,13.4c-3.3,0-5.7-1.1-7.4-3.5c-1.7-2.3-2.6-5.5-2.6-9.6s0.9-7.3,2.6-9.7
			c1.7-2.3,4.1-3.5,7.4-3.5C414.9,509.9,418.4,514.1,418.4,522.6z"/>
		<path class="st1" d="M448.7,503.4c-5.5,0-10.1,2-13.6,6s-5.3,8.9-5.3,14.7c0,5.9,1.7,10.9,5.2,14.8c3.5,4,8.2,5.9,14,5.9
			c4.5,0,8.3-1.2,11.2-3.5c3-2.3,5-5.6,5.9-9.9l0.2-0.9H459l-0.1,0.5c-1.3,4.9-4.4,7.3-9.8,7.3c-3.5,0-6.1-1.1-8.2-3.5
			c-1.9-2.3-3-5.1-3.4-8.6h29.4v-0.8c0-6.6-1.6-12-4.7-16C459.1,505.5,454.5,503.4,448.7,503.4z M448.7,509.5c3.2,0,5.6,1,7.4,3
			c1.6,1.9,2.6,4.5,2.9,7.8h-21.3c0.5-3.1,1.6-5.6,3.5-7.6C443,510.6,445.5,509.5,448.7,509.5z"/>
		<path class="st1" d="M490.2,503.4c-4.6,0-8.6,1.6-11.5,4.8v-3.9h-7.4v39.5h7.4v-24.1c0-2.9,0.9-5.3,2.7-7c1.9-1.9,4.1-2.7,7-2.7
			c2.5,0,4.5,0.6,5.9,1.9c1.3,1.2,2,2.9,2,5.2V544h7.4v-27.5c0-4.1-1.2-7.3-3.6-9.6C497.8,504.6,494.4,503.4,490.2,503.4z"/>
		<path class="st1" d="M527.2,509.8c2.6,0,4.8,0.7,6.5,2c1.6,1.3,2.6,3.2,3.1,5.7l0.1,0.6h7.5l-0.1-0.8c-0.8-4.2-2.6-7.7-5.6-10.1
			s-6.8-3.8-11.4-3.8c-5.8,0-10.4,2-13.9,6s-5.3,8.9-5.3,14.8c0,5.8,1.7,10.8,5.3,14.8c3.5,4,8.2,6,13.9,6c5,0,8.9-1.3,11.9-4
			s4.7-6.4,5.1-11.1l0.1-0.8h-7.3l-0.1,0.7c-0.2,2.8-1.2,5-2.8,6.5c-1.7,1.5-4,2.3-6.8,2.3c-3.8,0-6.5-1.3-8.5-4s-3.1-6.2-3.1-10.4
			s1-7.6,3.1-10.3C520.7,511.1,523.4,509.8,527.2,509.8z"/>
		<path class="st1" d="M565,503.4c-5.5,0-10,2-13.6,6c-3.5,4-5.3,8.9-5.3,14.7c0,5.9,1.7,10.9,5.2,14.8c3.5,4,8.2,5.9,14,5.9
			c4.5,0,8.3-1.2,11.2-3.5c3-2.3,5-5.6,5.8-9.9l0.2-0.9h-7.3L575,531c-1.3,4.9-4.4,7.3-9.8,7.3c-3.5,0-6.1-1.1-8.2-3.5
			c-1.9-2.3-3-5.1-3.4-8.6H583v-0.8c0-6.6-1.6-12-4.7-16C575.3,505.5,570.8,503.4,565,503.4z M565,509.5c3.2,0,5.6,1,7.4,3
			c1.7,1.9,2.6,4.5,2.9,7.8H554c0.5-3.1,1.7-5.6,3.5-7.6C559.4,510.6,561.8,509.5,565,509.5z"/>
		<rect x="599.3" y="489.8" class="st1" width="7.4" height="8.8"/>
		<rect x="599.3" y="504.4" class="st1" width="7.4" height="39.5"/>
		<path class="st1" d="M632.3,503.4c-4.7,0-8.5,1.6-11.5,4.8v-3.9h-7.4v39.5h7.4v-24.1c0-2.9,0.9-5.3,2.7-7c1.9-1.9,4.1-2.7,7-2.7
			c2.5,0,4.5,0.6,5.8,1.9c1.3,1.2,2,2.9,2,5.2V544h7.4v-27.5c0-4.1-1.2-7.3-3.6-9.6C639.8,504.6,636.5,503.4,632.3,503.4z"/>
		<path class="st1" d="M687.9,521.8h15.8v0.5c0,4.5-1.3,8.3-3.9,11.2c-2.5,2.8-6.4,4.3-11.3,4.3c-5.1,0-9.3-1.9-12.5-5.7
			s-4.9-8.8-4.9-15.1s1.5-11.5,4.5-15.4c2.9-3.8,7.3-5.8,13.2-5.8c3.9,0,7.1,0.9,9.5,2.8c2.3,1.8,3.9,4.5,4.6,7.9l0.2,0.6h8.3
			l-0.4-0.9c-0.9-5.4-3.3-9.8-7.1-12.8c-3.8-3.2-8.8-4.7-15-4.7c-8.2,0-14.6,2.7-19.2,8c-4.5,5.3-6.8,12.1-6.8,20.3s2.4,15,7,20.2
			c4.7,5.2,10.9,7.8,18.5,7.8c6.8,0,12.3-2.5,16.2-7.3l1.7,6.2h5.6v-29.3H688L687.9,521.8L687.9,521.8z"/>
		<path class="st1" d="M748.9,537.6v-21.3c0-8.5-4.9-12.8-14.5-12.8c-5,0-8.9,1.3-11.6,3.8c-2.8,2.5-4.3,5.8-4.6,9.8l-0.1,0.8h7.2
			l0.1-0.7c0.4-5.2,3.4-7.7,9.1-7.7c2.6,0,4.4,0.5,5.7,1.6c1.3,1,1.9,2.5,1.9,4.4c0,1.6-0.5,2.8-1.7,3.4c-1.3,0.8-3.5,1.3-6.6,1.6
			c-2.1,0.2-4,0.4-5.5,0.8c-1.6,0.3-3.2,0.8-4.7,1.3c-1.6,0.6-2.8,1.3-3.9,2.2c-1,0.9-1.8,2-2.5,3.5c-0.6,1.4-0.9,3.1-0.9,4.9
			c0,3.7,1.3,6.6,4,8.6c2.6,2,5.9,2.9,9.8,2.9c4.7,0,8.7-1.7,11.8-4.9c0.1,2,0.6,3.2,1.3,4l0.2,0.2h6.8v-1.3l-0.3-0.2
			C749.6,542,748.9,541.1,748.9,537.6z M731.3,538.6c-5,0-7.2-1.8-7.2-5.7c0-2.3,0.7-3.8,2.1-4.6c1.6-0.9,4.2-1.6,7.8-2
			c3.2-0.4,5.8-1,8-1.9v4.6c0,2.4-0.9,4.5-2.8,6.5C737.4,537.6,734.8,538.6,731.3,538.6z"/>
		<path class="st1" d="M795,503.4c-2.5,0-4.9,0.7-7,1.9c-1.9,1-3.4,2.5-4.5,4.1c-1.9-4-5.3-6.1-10.1-6.1c-2.4,0-4.7,0.6-6.8,1.8
			c-1.5,0.9-2.8,1.9-3.8,3.2v-4.2h-7.4v39.5h7.4v-24.5c0-2.7,0.9-4.9,2.8-6.8c1.9-1.9,4-2.8,6.2-2.8c1.7,0,3.1,0.6,4.2,1.8
			c1.1,1.2,1.7,2.9,1.7,5v27.2h7.4V519c0-2.7,0.8-5,2.6-6.8c1.7-1.8,3.7-2.7,6-2.7c1.8,0,3.2,0.6,4.4,1.8s1.8,2.8,1.8,5v27.2h7.4
			V516c0-4-1.1-7.3-3.4-9.5C801.7,504.6,798.7,503.4,795,503.4z"/>
		<rect x="813.8" y="489.8" class="st1" width="7.4" height="8.8"/>
		<rect x="813.8" y="504.4" class="st1" width="7.4" height="39.5"/>
		<path class="st1" d="M846.8,503.4c-4.6,0-8.5,1.6-11.5,4.8v-3.9h-7.4v39.5h7.4v-24.1c0-2.9,0.9-5.3,2.7-7c1.9-1.9,4.1-2.7,7-2.7
			c2.5,0,4.5,0.6,5.8,1.9c1.3,1.2,2,2.9,2,5.2V544h7.4v-27.5c0-4.1-1.2-7.3-3.6-9.6C854.3,504.6,850.9,503.4,846.8,503.4z"/>
		<path class="st1" d="M892.6,504.4v3.7c-2.8-3.1-6.5-4.6-11-4.6c-4.8,0-8.8,1.8-12.2,5.3c-3.2,3.5-4.9,8.3-4.9,14.2
			c0,5.6,1.7,10.4,4.8,14c3.2,3.7,7.4,5.5,12.5,5.5c2.7,0,4.9-0.5,6.8-1.6c1.3-0.8,2.7-1.9,3.9-3.2v3.5c0,6.1-3.3,9.1-10.2,9.1
			c-6.1,0-9.2-1.7-9.8-5.2l-0.1-0.6h-7l0.1,0.8c0.4,3.5,2,6.4,5,8.3c2.9,1.9,6.9,2.8,11.9,2.8c5.3,0,9.6-1.3,12.8-3.9
			c3.1-2.6,4.7-6.5,4.7-11.6v-36.8h-7.3V504.4z M893,522.6c0,9-3.5,13.4-10.8,13.4c-3.3,0-5.7-1.1-7.4-3.5c-1.7-2.3-2.6-5.5-2.6-9.6
			s0.9-7.3,2.6-9.7c1.7-2.3,4.1-3.5,7.4-3.5C889.4,509.9,893,514.1,893,522.6z"/>
	</g>
</g>
</svg>
