<?xml version="1.0" encoding="utf-8"?>
<!-- Generator: Adobe Illustrator 22.0.0, SVG Export Plug-In . SVG Version: 6.00 Build 0)  -->
<svg version="1.1" id="Layer_1" xmlns="http://www.w3.org/2000/svg" xmlns:xlink="http://www.w3.org/1999/xlink" x="0px" y="0px"
	 viewBox="0 0 1200 800" style="enable-background:new 0 0 1200 800;" xml:space="preserve">
<style type="text/css">
	.st0{fill:#031F37;}
	.st1{fill:#FFFFFF;}
	.st2{fill:#FC273F;}
</style>
<rect class="st0" width="1200" height="800"/>
<g>
	<g>
		<path class="st1" d="M369.4,249H300v86.6h69.4c5.5,0,10.3-2,14.2-5.9s5.9-8.7,5.9-14.2v-46.4c0-5.5-2-10.3-5.9-14.2
			C379.7,251,374.9,249,369.4,249z M313.6,261.4h53.1c2.7,0,4.9,0.9,6.7,2.7c1.8,1.8,2.6,4,2.6,6.6V314c0,2.7-0.9,4.8-2.6,6.6
			c-1.8,1.8-3.9,2.6-6.7,2.6h-53.1V261.4z"/>
		<path class="st1" d="M402.2,276.4c-3.8,3.4-5.7,7.6-5.7,12.4V318c0,4.8,1.9,9,5.7,12.4c3.8,3.4,8.4,5.1,13.8,5.1h46v-64.3h-46
			C410.6,271.3,406,273,402.2,276.4z M409.6,291.3c0-2.3,0.8-4.1,2.5-5.6s3.8-2.3,6.4-2.3h30.2v40.3h-30.2c-2.6,0-4.7-0.7-6.4-2.3
			c-1.7-1.5-2.5-3.3-2.5-5.6V291.3z"/>
		<path class="st1" d="M482.7,259.3h-13.1c0,0,0,40.8,0,58.9c0,4.8,1.9,9,5.7,12.4c3.8,3.4,8.4,5.1,13.7,5.1h22.3v-12h-20.7
			c-2.3,0-4.1-0.8-5.6-2.4s-2.3-3.5-2.3-5.7v-32.3h28.6v-12h-28.6V259.3L482.7,259.3z"/>
		<path class="st1" d="M524.8,276.4c-3.8,3.4-5.7,7.6-5.7,12.4V318c0,4.8,1.9,9,5.7,12.4s8.4,5.1,13.8,5.1h46v-64.3h-46
			C533.2,271.3,528.5,273,524.8,276.4z M532.2,291.3c0-2.3,0.8-4.1,2.5-5.6s3.8-2.3,6.4-2.3h30.2v40.3h-30.2c-2.6,0-4.7-0.7-6.4-2.3
			c-1.7-1.5-2.5-3.3-2.5-5.6V291.3z"/>
		<polygon class="st1" points="677.4,249 640.5,321.8 603.7,249 588.3,249 633,335.7 648.1,335.7 692.8,249 		"/>
		<path class="st1" d="M694.7,276.4c-3.8,3.4-5.7,7.6-5.7,12.4V318c0,4.8,1.9,9,5.7,12.4s8.4,5.1,13.8,5.1h46v-64.3h-46
			C703.1,271.3,698.4,273,694.7,276.4z M702.1,291.3c0-2.3,0.8-4.1,2.5-5.6s3.8-2.3,6.4-2.3h30.2v40.3H711c-2.6,0-4.7-0.7-6.4-2.3
			c-1.7-1.5-2.5-3.3-2.5-5.6V291.3z"/>
		<path class="st1" d="M815.2,315.8c0,2.3-0.8,4.2-2.5,5.6c-1.7,1.5-3.8,2.3-6.4,2.3H784c-2.6,0-4.7-0.7-6.4-2.3
			c-1.7-1.5-2.5-3.3-2.5-5.6v-44.5H762v46.9c0,4.8,1.9,9,5.7,12.4s8.3,5.1,13.7,5.1h27.7c5.3,0,9.9-1.7,13.7-5.1
			c3.8-3.4,5.7-7.6,5.7-12.4v-46.9h-13.2v44.5L815.2,315.8L815.2,315.8z"/>
		<rect x="836.8" y="249" class="st1" width="13.1" height="86.6"/>
		<path class="st1" d="M871.4,259.3h-13.1c0,0,0,41,0,58.9c0,4.8,1.9,9,5.7,12.4s8.4,5.1,13.7,5.1H900v-12h-20.7
			c-2.3,0-4.1-0.8-5.6-2.4s-2.3-3.5-2.3-5.7v-32.3H900v-12h-28.6V259.3z"/>
	</g>
	<g>
		<path class="st2" d="M453.2,364.7H343.1c-11.8,0-22.1,4.2-30.5,12.6c-8.3,8.4-12.6,18.6-12.6,30.5v100c0,11.8,4.3,22.1,12.6,30.5
			c8.4,8.4,18.6,12.6,30.5,12.6h110.1c11.8,0,22.1-4.2,30.6-12.6c8.4-8.4,12.7-18.6,12.7-30.5v-100c0-11.8-4.3-22.1-12.7-30.5
			C475.3,368.8,465,364.7,453.2,364.7z M467.3,411v93.4c0,5.7-1.9,10.4-5.7,14.2c-3.8,3.8-8.5,5.7-14.3,5.7H349
			c-5.8,0-10.5-1.8-14.2-5.6c-3.8-3.8-5.6-8.4-5.6-14.2V411c0-5.8,1.8-10.5,5.6-14.3l0,0c3.8-3.8,8.4-5.7,14.2-5.7h98.3
			c5.8,0,10.5,1.9,14.3,5.7C465.4,400.7,467.3,405.3,467.3,411z"/>
		<polygon class="st2" points="676.3,502.7 535.5,364.7 512.9,364.7 512.9,551 542.1,551 542.1,412.3 682.9,550.8 705.5,550.8 
			705.5,364.5 676.3,364.5 		"/>
		<path class="st2" d="M756.7,397.3c3.8-3.8,8.4-5.6,14.2-5.6H900v-27.1H765c-11.8,0-22.1,4.2-30.5,12.6
			c-8.4,8.4-12.6,18.6-12.6,30.5v100c0,11.8,4.3,22.1,12.6,30.5c8.4,8.4,18.6,12.6,30.5,12.6h135v-27.1H770.9
			c-5.8,0-10.5-1.8-14.2-5.6c-3.8-3.8-5.6-8.4-5.6-14.2V468h123.8v-27.1H751.1v-29.6C751.1,405.7,752.9,401,756.7,397.3z"/>
	</g>
</g>
</svg>
