<?xml version="1.0" encoding="utf-8"?>
<!-- Generator: Adobe Illustrator 22.0.0, SVG Export Plug-In . SVG Version: 6.00 Build 0)  -->
<svg version="1.1" id="Layer_1" xmlns="http://www.w3.org/2000/svg" xmlns:xlink="http://www.w3.org/1999/xlink" x="0px" y="0px"
	 viewBox="0 0 1200 800" style="enable-background:new 0 0 1200 800;" xml:space="preserve">
<style type="text/css">
	.st0{fill:#FFFFFF;}
	.st1{fill:#131215;}
	.st2{fill:#E50A0A;}
</style>
<rect class="st0" width="1200" height="800"/>
<g>
	<g id="name">
		<g id="XMLID_1_">
			<rect id="XMLID_4_" x="806.7" y="501.3" class="st1" width="193.3" height="5"/>
			<rect id="XMLID_3_" x="200" y="501.3" class="st1" width="184" height="5"/>
		</g>
		<g>
			<path class="st1" d="M405.2,503.7c0-12.1,8.9-21.5,20.4-21.5c10.3,0,18.6,6.9,20.2,17.1h-6.7c-1.2-6.7-6.6-11.4-13.4-11.4
				c-8.2,0-13.9,6.6-13.9,15.8c0,9.3,5.7,15.9,13.9,15.9c6.8,0,12.2-4.8,13.4-11.5h6.7c-1.6,10.2-9.8,17.1-20.2,17.1
				C414.1,525.3,405.2,515.9,405.2,503.7z"/>
			<path class="st1" d="M450,503.7c0-12.2,9-21.5,21-21.5s21,9.3,21,21.5s-9,21.6-21,21.6S450,515.9,450,503.7z M485.4,503.7
				c0-8.8-5.7-15.8-14.5-15.8s-14.5,6.9-14.5,15.8c0,8.8,5.7,15.9,14.5,15.9C479.8,519.7,485.4,512.6,485.4,503.7z"/>
			<path class="st1" d="M504.4,492.8v31.6h-5.9v-41.3h7.8l13.8,33.5l13.8-33.5h7.9v41.3H536v-31.7l-13.1,31.7h-5.4L504.4,492.8z"/>
			<path class="st1" d="M557.2,510.1v14.4h-6.4v-41.3h14.4c9.3,0,15.2,4.7,15.2,13.4s-6,13.6-15.2,13.6h-8V510.1z M557.2,488.5v16.3
				h8c5.5,0,8.9-3.1,8.9-8.2s-3.4-8.1-8.9-8.1H557.2L557.2,488.5z"/>
			<path class="st1" d="M586.8,524.5v-41.3h6.4v35.7h18.7v5.7h-25.1L586.8,524.5L586.8,524.5z"/>
			<path class="st1" d="M618,524.5v-41.3h6.4v41.3H618z"/>
			<path class="st1" d="M658,514.2h-17.9l-3.8,10.2h-6.4l15.9-41.3h6.9l15.8,41.3h-6.7L658,514.2z M642.1,509.1h14.1l-6.9-19.1
				L642.1,509.1z"/>
			<path class="st1" d="M680.1,492.2v32.3h-5.9v-41.3h6.9l21.3,31.4v-31.4h5.9v41.3h-6.4L680.1,492.2z"/>
			<path class="st1" d="M714.8,503.7c0-12.1,8.9-21.5,20.4-21.5c10.3,0,18.6,6.9,20.2,17.1h-6.7c-1.2-6.7-6.6-11.4-13.4-11.4
				c-8.2,0-13.9,6.6-13.9,15.8c0,9.3,5.7,15.9,13.9,15.9c6.8,0,12.2-4.8,13.4-11.5h6.7c-1.6,10.2-9.8,17.1-20.2,17.1
				C723.7,525.3,714.8,515.9,714.8,503.7z"/>
			<path class="st1" d="M788.2,524.5H762v-41.3h25.8v5.5h-19.5v11.7h17.8v5.5h-17.8v13h19.9V524.5L788.2,524.5z"/>
		</g>
	</g>
	<g>
		<g>
			<rect x="649.7" y="274.7" class="st2" width="27.5" height="32"/>
			<polygon class="st2" points="383.4,343 421.2,285.9 458.9,343 490.9,343 446.2,274.7 396.2,274.7 351.5,343 			"/>
			<polygon class="st2" points="592.4,397.7 563.6,429.9 534.7,397.7 499.7,397.7 546.1,449.6 581.2,449.6 627.6,397.7 			"/>
			<g id="XMLID_9_">
				<path id="XMLID_10_" class="st2" d="M709.8,449.6V343l67,61l65.8-61v106.6H816v-48.4l-38.6,37.2H776l-39.8-37.2v48.4H709.8z"/>
			</g>
		</g>
		<g>
			<g id="XMLID_2_">
				<g id="XMLID_7_">
					<polygon id="XMLID_8_" class="st1" points="930.3,309.8 860.5,416.4 892.5,416.4 930.3,359.2 968.1,416.4 1000,416.4 					"/>
				</g>
				<g id="XMLID_5_">
					<path id="XMLID_6_" class="st1" d="M200,416.4V309.8l67,61l65.8-61v106.6h-26.6V368l-38.5,37.2h-1.3L226.5,368v48.4H200z"/>
				</g>
			</g>
			<rect x="649.7" y="326.4" class="st1" width="27.5" height="104"/>
			<polygon class="st1" points="351.5,449.6 383.4,449.6 421.2,392.4 458.9,449.6 490.9,449.6 421.2,343 			"/>
			<polygon class="st1" points="592.4,274.8 563.6,307.2 534.7,274.8 499.7,274.8 546.1,326.9 499.7,378.8 534.7,378.8 563.6,346.4 
				592.4,378.8 627.6,378.8 581.2,326.9 627.6,274.8 			"/>
			<polygon class="st1" points="792.6,274.7 776.7,289.5 760.4,274.7 709.8,274.7 709.8,335.1 736.2,335.1 736.2,286.6 776,323.7 
				777.3,323.7 815.8,286.6 815.8,335.1 842.4,335.1 842.4,274.7 			"/>
		</g>
	</g>
</g>
</svg>
