<?xml version="1.0" encoding="utf-8"?>
<!-- Generator: Adobe Illustrator 22.0.0, SVG Export Plug-In . SVG Version: 6.00 Build 0)  -->
<svg version="1.1" id="Layer_1" xmlns="http://www.w3.org/2000/svg" xmlns:xlink="http://www.w3.org/1999/xlink" x="0px" y="0px"
	 viewBox="0 0 1200 800" style="enable-background:new 0 0 1200 800;" xml:space="preserve">
<style type="text/css">
	.st0{fill:#FFDD33;}
	.st1{fill:#203F58;}
	.st2{fill:#FFFFFF;}
</style>
<rect class="st0" width="1200" height="800"/>
<g>
	<g>
		<path class="st1" d="M412.5,357.3c0-27.7,19.8-50.2,48.7-50.2c29,0,47.1,21,47.1,47.8v7.9h-76.9c2.2,16.5,14.7,28,31.9,28
			c11.8,0,22.3-5.1,28-15.7l15,7.7c-8.5,16.5-23.9,25.3-42.7,25.3C434.3,407.9,412.5,386.8,412.5,357.3z M488.8,350.1
			c-0.7-15.3-11.9-25.6-27.8-25.6c-16.3,0-26.8,11.4-28.9,25.6H488.8z"/>
		<path class="st1" d="M516.2,357.6c0-27.7,22.6-50.4,50.2-50.2c17.6,0,34,8,42.7,25.3l-16,9c-5.7-10.3-15.3-15.9-26.7-15.9
			c-16.9,0-30.7,14.3-30.7,31.8c0,17.6,13.9,32.2,30.7,32.2c11.4,0,21-5.5,26.7-15.9l16,8.8c-8.8,17.5-25.1,25.3-42.7,25.3
			C538.7,408.4,516.2,385.5,516.2,357.6z"/>
		<path class="st1" d="M617,405.8v-57.3c0-23.3,13.3-40.8,38.5-40.8c6.1,0,12.4,1.2,17.2,3.5v19.2c-4.6-2.8-10.2-4.1-15.4-4.1
			c-13,0-20.8,8.8-20.8,22.9v56.5L617,405.8L617,405.8z"/>
		<path class="st1" d="M754.4,356.1v-46.3h19.4v48.7c0,27.8-16.9,49.8-47.1,49.8c-29.8,0-46.6-22.1-46.6-50v-48.4h19.4v46.5
			c0,17.6,9.6,33.1,27.2,33.1C744.6,389.4,754.4,373.9,754.4,356.1z"/>
		<path class="st1" d="M787,278c0-7,5.7-13,12.7-13s12.5,5.8,12.5,13s-5.5,12.7-12.5,12.7S787,285,787,278z M809.5,309.7v96.1h-19.4
			v-96.1L809.5,309.7L809.5,309.7z"/>
		<path class="st1" d="M839.1,371.4v-44.7h-19v-16.9h19v-24.9h19.4v24.9h36.9v16.9h-36.9v44.2c0,12.5,7.4,19.9,19,19.9
			c6.3,0,13.1-2.3,17.8-5.7v17.8c-4.9,3.4-12.5,5.5-19.6,5.5C851.8,408.4,839.1,393.3,839.1,371.4z"/>
		<g>
			<path class="st1" d="M412.5,405.8l-28-42.4c13.8-9.1,22.6-24.6,22.6-42.2c0-27.4-22-50.2-51-50.2c-28.9,0-51.4,22.6-51.4,50.2
				v84.7H324V361c8.7,6.7,19.6,10.8,31.9,10.8c2.8,0,5.6-0.3,8.4-0.7l23,34.7H412.5L412.5,405.8z"/>
			<circle class="st2" cx="355.8" cy="321.4" r="38.5"/>
		</g>
	</g>
	<g>
		<path class="st1" d="M300,469.6c0-22.5,17.7-40.3,39.7-40.3c13.3,0,25.6,6.9,31.6,18.3l-9.7,5.5c-4.6-7.8-12.4-12.6-22.3-12.6
			c-15.1,0-27.1,12.6-27.1,29c0,16.6,11.8,29.3,27.1,29.3c10,0,17.9-4.8,22.3-12.6l9.7,5.5c-5.9,11.4-18.1,18.1-31.6,18.1
			C317.7,510.2,300,492.3,300,469.6z"/>
		<path class="st1" d="M374.7,480.1c0-16.4,13.3-29.8,30.5-29.8s30.3,13.5,30.3,29.8c0,16.6-13.1,30.1-30.3,30.1
			C388.1,510.2,374.7,496.7,374.7,480.1z M424.1,480.2c0-10.5-8.2-19.1-18.7-19.1c-10.8-0.1-19,8.6-19,19.1c0,10.3,8.2,19,19,19
			C415.9,499.2,424.1,490.6,424.1,480.2z"/>
		<path class="st1" d="M538.7,478.7v30h-11.5v-28.2c0-10.3-5.1-19.4-15.8-19.4c-10.3,0-15.6,8.8-15.6,19.2v28.4h-11.5v-28.4
			c0-10.5-5.2-19.2-15.8-19.2c-10.7,0-15.4,9.1-15.4,19.4v28.2h-11.5v-29.9c0-16,9.1-28.8,26.2-28.8c11.4,0,19.6,5.8,22.6,14.7
			c3.1-8.8,11.2-14.7,22-14.7C529.4,450,538.7,462.8,538.7,478.7z"/>
		<path class="st1" d="M548,535v-54.9c0-17,13.1-29.8,30.4-29.8c17.2,0,30.3,13.5,30.3,29.8c0,17.2-12.4,30.1-29.8,30.1
			c-7.6,0-14.7-3.4-19.3-8.5V535H548z M597.1,480.2c0-10.5-8.2-19-18.7-19c-10.7,0-18.9,8.5-18.9,19c0,10.3,8.2,19.1,18.9,19.1
			C588.9,499.4,597.1,490.6,597.1,480.2z"/>
		<path class="st1" d="M628.6,425.4v83.3H617v-83.3H628.6z"/>
		<path class="st1" d="M637.1,432.8c0-4.2,3.4-7.6,7.6-7.6c4.2,0,7.4,3.4,7.4,7.6s-3.2,7.6-7.4,7.6
			C640.4,440.3,637.1,437,637.1,432.8z M650.5,451.7v57.1H639v-57.1H650.5L650.5,451.7z"/>
		<path class="st1" d="M656.9,480.1c0-16.3,13-29.8,30.4-29.8c17.2,0,30.4,12.8,30.4,29.8v28.6h-10.9v-10
			c-4.3,7-11.8,11.4-21.1,11.4C669,510.2,656.9,496.7,656.9,480.1z M706.2,480.2c0-10.5-8.2-19.1-18.9-19.1
			c-10.6,0-18.9,8.6-18.9,19.1c0,10.3,8.2,19,18.9,19S706.2,490.6,706.2,480.2z"/>
		<path class="st1" d="M737,481.1v27.6h-11.5v-28.8c0-16.6,9.9-29.7,28.3-29.7c18.7,0,28.8,13,28.8,29.5v28.9h-11.5v-27.4
			c0-10.7-5.8-19.9-17.2-19.9C742.6,461.3,737,470.6,737,481.1z"/>
		<path class="st1" d="M786.8,480.1c0-16.4,13.3-29.9,29.8-29.8c10.5,0,20.2,4.8,25.3,15.1l-9.5,5.3c-3.4-6.1-9.1-9.4-15.8-9.4
			c-10,0-18.3,8.5-18.3,18.9c0,10.5,8.2,19.1,18.3,19.1c6.7,0,12.4-3.2,15.8-9.4l9.5,5.2c-5.2,10.3-14.9,15.1-25.3,15.1
			C800.2,510.2,786.8,496.7,786.8,480.1z"/>
		<path class="st1" d="M843.1,479.9c0-16.4,11.8-29.8,28.9-29.8c17.2,0,28,12.4,28,28.4v4.6h-45.7c1.3,9.7,8.8,16.6,19,16.6
			c7,0,13.3-3,16.6-9.3l8.8,4.6c-5,9.7-14.2,15.1-25.3,15.1C856,510,843.1,497.5,843.1,479.9z M888.4,475.7
			c-0.4-9.1-7-15.2-16.6-15.2c-9.7,0-16,6.7-17.1,15.2H888.4z"/>
	</g>
</g>
</svg>
